<?xml version="1.0" encoding="UTF-8" standalone="no"?>
<svg
   xmlns:dc="http://purl.org/dc/elements/1.1/"
   xmlns:cc="http://creativecommons.org/ns#"
   xmlns:rdf="http://www.w3.org/1999/02/22-rdf-syntax-ns#"
   xmlns:svg="http://www.w3.org/2000/svg"
   xmlns="http://www.w3.org/2000/svg"
   xmlns:xlink="http://www.w3.org/1999/xlink"
   xmlns:sodipodi="http://sodipodi.sourceforge.net/DTD/sodipodi-0.dtd"
   xmlns:inkscape="http://www.inkscape.org/namespaces/inkscape"
   width="51px"
   height="46px"
   viewBox="22 26 51 46"
   version="1.1"
   id="svg53"
   sodipodi:docname="1.svg"
   inkscape:version="0.92.3 (2405546, 2018-03-11)">
  <metadata
     id="metadata57">
    <rdf:RDF>
      <cc:Work
         rdf:about="">
        <dc:format>image/svg+xml</dc:format>
        <dc:type
           rdf:resource="http://purl.org/dc/dcmitype/StillImage" />
      </cc:Work>
    </rdf:RDF>
  </metadata>
  <sodipodi:namedview
     pagecolor="#ffffff"
     bordercolor="#666666"
     borderopacity="1"
     objecttolerance="10"
     gridtolerance="10"
     guidetolerance="10"
     inkscape:pageopacity="0"
     inkscape:pageshadow="2"
     inkscape:window-width="716"
     inkscape:window-height="480"
     id="namedview55"
     showgrid="false"
     inkscape:zoom="5.1304348"
     inkscape:cx="25.5"
     inkscape:cy="23"
     inkscape:window-x="0"
     inkscape:window-y="0"
     inkscape:window-maximized="0"
     inkscape:current-layer="svg53" />
  <!-- Generator: Sketch 39 (31667) - http://www.bohemiancoding.com/sketch -->
  <desc
     id="desc2">Created with Sketch.</desc>
  <defs
     id="defs9">
    <path
       d="M0,8.02413942 C2.7418717,10.4781876 6.56566131,12.0025532 10.7895758,11.9999968 C14.6027007,11.9999968 18.2009037,10.7658112 21,8.50761512 L21,0 L2.04447515e-15,0 L2.04447515e-15,8.02413942 L0,8.02413942 Z"
       id="path-1" />
    <path
       d="M0,6.12227362 C0.875984814,6.26312126 1.7702963,6.39104852 2.6812,6.50540809 L2.6812,0.2463 L0,0.2463 L0,6.12227362 L0,6.12227362 Z"
       id="path-3" />
    <path
       d="M0.7715,6.32666774 C1.86632895,6.19685671 2.94327845,6.05277531 4,5.89472248 L4,0.2463 L0.7715,0.2463 L0.7715,6.32666774 L0.7715,6.32666774 Z"
       id="path-5" />
    <path
       d="M9.0645867e-15,3.66126563 C1.95847936,5.10483038 4.68948457,6.00139849 7.70590236,5.99999836 C10.4309075,5.99912901 12.9997847,5.27354365 15,3.94439272 L15,0 L0,0 L0,3.66126563 L9.0645867e-15,3.66126563 Z"
       id="path-7" />
    <path
       d="M0,4.59692772 C1.82791407,6.40926693 4.37685226,7.53475781 7.19217554,7.53299972 C9.73551368,7.53299972 12.1331324,6.62196825 14,4.95300467 L14,0 L0,0 L0,4.59692772 L0,4.59692772 Z"
       id="path-9" />
  </defs>
  <g
     id="Page-1"
     stroke="none"
     stroke-width="1"
     fill="none"
     fill-rule="evenodd"
     transform="translate(23.000000, 27.000000)"
     inkscape:export-xdpi="96"
     inkscape:export-ydpi="96">
    <polyline
       id="Stroke-1"
       stroke="#484F59"
       stroke-width="1.5"
       points="24.8848 15.3787 26.6008 14.3887 32.1198 11.2017" />
    <polyline
       id="Stroke-2"
       stroke="#484F59"
       stroke-width="1.5"
       points="32.0293 33.1628 26.6003 30.0278 24.9243 29.0608" />
    <g
       id="Group-14"
       transform="translate(3.000000, 13.132100)">
      <g
         id="Group-5"
         transform="translate(0.000000, 9.000000)">
        <mask
           id="mask-2"
           fill="white">
          <use
             xlink:href="#path-1"
             id="use13" />
        </mask>
        <g
           id="Clip-4" />
        <path
           d="M19.7344,15.613 L19.7344,5.457 C19.7334,4.163 18.7184,2.665 17.4274,2.271 C12.9814,0.944 8.2424,0.944 3.7954,2.271 C2.5064,2.665 1.4904,4.167 1.4884,5.457 L1.4884,15.613 L19.7344,15.613 L19.7344,15.613 Z"
           id="Stroke-3"
           stroke="#484F59"
           stroke-width="1.5"
           mask="url(#mask-2)" />
      </g>
      <path
         d="M15.2476,5.4827 C15.2476,8.0427 13.1716,10.1167 10.6116,10.1167 C8.0516,10.1167 5.9776,8.0427 5.9776,5.4827 C5.9776,2.9227 8.0516,0.8477 10.6116,0.8477 C13.1716,0.8477 15.2476,2.9227 15.2476,5.4827 L15.2476,5.4827 Z"
         id="Stroke-6"
         stroke="#484F59"
         stroke-width="1.5" />
      <g
         id="Group-10"
         transform="translate(4.000000, 15.000000)">
        <mask
           id="mask-4"
           fill="white">
          <use
             xlink:href="#path-3"
             id="use20" />
        </mask>
        <g
           id="Clip-9" />
        <path
           d="M1.6812,0.2463 L1.6812,9.4403"
           id="Stroke-8"
           stroke="#484F59"
           stroke-width="1.5"
           mask="url(#mask-4)" />
      </g>
      <g
         id="Group-13"
         transform="translate(13.000000, 15.000000)">
        <mask
           id="mask-6"
           fill="white">
          <use
             xlink:href="#path-5"
             id="use26" />
        </mask>
        <g
           id="Clip-12"
           transform="translate(2.385750, 3.286484) scale(-1, 1) translate(-2.385750, -3.286484) " />
        <path
           d="M2.543,0.2463 L2.543,9.4403"
           id="Stroke-11"
           stroke="#484F59"
           stroke-width="1.5"
           mask="url(#mask-6)" />
      </g>
    </g>
    <path
       d="M23.1499,31.4522 C20.6639,33.9472 17.3679,35.3172 13.8619,35.3182 C6.6309,35.3232 0.7489,29.4432 0.7499,22.2132 C0.7499,18.7252 2.1079,15.4412 4.5779,12.9612 C7.0579,10.4712 10.3549,9.0982 13.8559,9.0982 C17.3559,9.0982 20.6449,10.4592 23.1269,12.9422 C25.6059,15.4192 26.9719,18.7132 26.9759,22.2072 C26.9769,25.6922 25.6179,28.9732 23.1499,31.4522 L23.1499,31.4522 Z"
       id="Stroke-15"
       stroke="#484F59"
       stroke-width="1.5" />
    <g
       id="Group-22"
       transform="translate(32.000000, 4.132100)">
      <g
         id="Group-19"
         transform="translate(0.000000, 6.000000)">
        <mask
           id="mask-8"
           fill="white">
          <use
             xlink:href="#path-7"
             id="use34" />
        </mask>
        <g
           id="Clip-18" />
        <path
           d="M13.8076,10.2319 L13.8076,3.6879 C13.8076,2.8529 13.1536,1.8889 12.3206,1.6349 C9.4556,0.7789 6.4026,0.7789 3.5366,1.6349 C2.7046,1.8889 2.0506,2.8549 2.0496,3.6879 L2.0496,10.2319 L13.8076,10.2319 L13.8076,10.2319 Z"
           id="Stroke-17"
           stroke="#484F59"
           stroke-width="1.5"
           mask="url(#mask-8)" />
      </g>
      <path
         d="M10.916,3.9041 C10.916,5.5531 9.578,6.8911 7.929,6.8911 C6.279,6.8911 4.942,5.5531 4.942,3.9041 C4.942,2.2551 6.279,0.9171 7.929,0.9171 C9.578,0.9171 10.916,2.2551 10.916,3.9041 L10.916,3.9041 Z"
         id="Stroke-20"
         stroke="#484F59"
         stroke-width="1.5" />
    </g>
    <path
       d="M46.0752,15.155 C44.4732,16.764 42.3492,17.647 40.0902,17.648 C35.4302,17.651 31.6392,13.861 31.6402,9.202 C31.6402,6.954 32.5142,4.838 34.1072,3.24 C35.7052,1.634 37.8292,0.75 40.0862,0.75 C42.3422,0.749 44.4612,1.627 46.0612,3.228 C47.6582,4.824 48.5382,6.946 48.5402,9.197 C48.5412,11.445 47.6662,13.559 46.0752,15.155 L46.0752,15.155 Z"
       id="Stroke-23"
       stroke="#484F59"
       stroke-width="1.5" />
    <g
       id="Group-30"
       transform="translate(33.000000, 30.132100)">
      <g
         id="Group-27"
         transform="translate(0.000000, 6.000000)">
        <mask
           id="mask-10"
           fill="white">
          <use
             xlink:href="#path-9"
             id="use43" />
        </mask>
        <g
           id="Clip-26" />
        <path
           d="M12.8076,10.25 L12.8076,3.706 C12.8076,2.872 12.1536,1.907 11.3206,1.652 C8.4556,0.797 5.4026,0.797 2.5366,1.652 C1.7046,1.907 1.0506,2.873 1.0496,3.706 L1.0496,10.25 L12.8076,10.25 L12.8076,10.25 Z"
           id="Stroke-25"
           stroke="#484F59"
           stroke-width="1.5"
           mask="url(#mask-10)" />
      </g>
      <path
         d="M9.916,3.9221 C9.916,5.5711 8.578,6.9081 6.929,6.9081 C5.279,6.9081 3.942,5.5711 3.942,3.9221 C3.942,2.2731 5.279,0.9351 6.929,0.9351 C8.578,0.9351 9.916,2.2731 9.916,3.9221 L9.916,3.9221 Z"
         id="Stroke-28"
         stroke="#484F59"
         stroke-width="1.5" />
    </g>
    <path
       d="M46.0752,41.1733 C44.4732,42.7823 42.3492,43.6653 40.0902,43.6653 C35.4302,43.6683 31.6392,39.8793 31.6402,35.2193 C31.6402,32.9723 32.5142,30.8553 34.1072,29.2573 C35.7052,27.6533 37.8292,26.7683 40.0862,26.7683 C42.3422,26.7673 44.4612,27.6453 46.0612,29.2453 C47.6582,30.8413 48.5382,32.9643 48.5402,35.2153 C48.5412,37.4623 47.6662,39.5773 46.0752,41.1733 L46.0752,41.1733 Z"
       id="Stroke-31"
       stroke="#484F59"
       stroke-width="1.5" />
  </g>
</svg>
