<?xml version="1.0" encoding="UTF-8" standalone="no"?>
<svg
   xmlns:dc="http://purl.org/dc/elements/1.1/"
   xmlns:cc="http://creativecommons.org/ns#"
   xmlns:rdf="http://www.w3.org/1999/02/22-rdf-syntax-ns#"
   xmlns:svg="http://www.w3.org/2000/svg"
   xmlns="http://www.w3.org/2000/svg"
   xmlns:sodipodi="http://sodipodi.sourceforge.net/DTD/sodipodi-0.dtd"
   xmlns:inkscape="http://www.inkscape.org/namespaces/inkscape"
   width="51px"
   height="51px"
   viewBox="23 23 51 51"
   version="1.1"
   id="svg15"
   sodipodi:docname="2.svg"
   inkscape:version="0.92.3 (2405546, 2018-03-11)">
  <metadata
     id="metadata19">
    <rdf:RDF>
      <cc:Work
         rdf:about="">
        <dc:format>image/svg+xml</dc:format>
        <dc:type
           rdf:resource="http://purl.org/dc/dcmitype/StillImage" />
      </cc:Work>
    </rdf:RDF>
  </metadata>
  <sodipodi:namedview
     pagecolor="#ffffff"
     bordercolor="#666666"
     borderopacity="1"
     objecttolerance="10"
     gridtolerance="10"
     guidetolerance="10"
     inkscape:pageopacity="0"
     inkscape:pageshadow="2"
     inkscape:window-width="716"
     inkscape:window-height="480"
     id="namedview17"
     showgrid="false"
     inkscape:zoom="4.627451"
     inkscape:cx="25.5"
     inkscape:cy="25.5"
     inkscape:window-x="0"
     inkscape:window-y="0"
     inkscape:window-maximized="0"
     inkscape:current-layer="svg15" />
  <!-- Generator: Sketch 39 (31667) - http://www.bohemiancoding.com/sketch -->
  <desc
     id="desc2">Created with Sketch.</desc>
  <defs
     id="defs4" />
  <g
     id="Master-Icons-02"
     stroke="none"
     stroke-width="1"
     fill="none"
     fill-rule="evenodd"
     transform="translate(23.000000, 24.000000)"
     inkscape:export-xdpi="96"
     inkscape:export-ydpi="96">
    <path
       d="M47.166,10.773 L50.125,10.773 L50.125,48.523 L0.875,48.523 L0.875,10.773 L22.665,10.773 M22.79,33.356 L4.042,33.356 L4.042,19.606 L22.79,19.606 M22.915,15.523 L0.875,15.523 M2.625,13.106 L4.17,13.106 M5.3,13.106 L6.846,13.106 M7.975,13.106 L9.521,13.106"
       id="Stroke-1"
       stroke="#42484D"
       stroke-width="1.5" />
    <path
       d="M15.388,36.979 L22.638,36.979 M15.388,39.729 L22.638,39.729 M15.388,42.479 L22.638,42.479 M15.388,45.229 L22.638,45.229"
       id="Stroke-2"
       stroke="#42484D"
       stroke-width="1.5"
       stroke-linejoin="bevel" />
    <polygon
       id="Stroke-3"
       stroke="#42484D"
       stroke-width="1.5"
       points="4.169 45.229 12.419 45.229 12.419 36.979 4.169 36.979" />
    <path
       d="M47.31,46.991 C47.31,47.836 46.624,48.523 45.778,48.523 L24.334,48.523 C23.488,48.523 22.802,47.836 22.802,46.991 L22.802,1.805 C22.802,0.959 23.488,0.273 24.334,0.273 L45.778,0.273 C46.624,0.273 47.31,0.959 47.31,1.805 L47.31,46.991 L47.31,46.991 Z"
       id="Stroke-4"
       stroke="#42484D"
       stroke-width="1.5"
       stroke-linejoin="round" />
    <path
       d="M46.827,41.63 L23.284,41.63 M23.284,6.783 L46.827,6.783"
       id="Stroke-5"
       stroke="#42484D"
       stroke-width="1.5" />
    <path
       d="M25.415,21.803 L44.29,21.803 L44.29,9.942 L25.415,9.942 L25.415,21.803 Z M26.915,20.304 L42.79,20.304 L42.79,11.443 L26.915,11.443 L26.915,20.304 Z"
       id="Fill-6"
       fill="#42484D" />
    <path
       d="M30.962,3.695 L39.15,3.695 M34.306,44.528 L35.806,44.528"
       id="Stroke-7"
       stroke="#42484D"
       stroke-width="1.5"
       stroke-linejoin="round" />
    <path
       d="M25.415,25.146 L44.273,25.146 M25.415,27.928 L44.273,27.928 M25.415,30.709 L44.273,30.709 M25.415,33.49 L44.273,33.49 M25.415,36.271 L36.415,36.271"
       id="Stroke-8"
       stroke="#42484D"
       stroke-width="1.5"
       stroke-linejoin="bevel" />
  </g>
</svg>
