<?xml version="1.0" encoding="UTF-8" standalone="no"?>
<svg
   xmlns:dc="http://purl.org/dc/elements/1.1/"
   xmlns:cc="http://creativecommons.org/ns#"
   xmlns:rdf="http://www.w3.org/1999/02/22-rdf-syntax-ns#"
   xmlns:svg="http://www.w3.org/2000/svg"
   xmlns="http://www.w3.org/2000/svg"
   xmlns:sodipodi="http://sodipodi.sourceforge.net/DTD/sodipodi-0.dtd"
   xmlns:inkscape="http://www.inkscape.org/namespaces/inkscape"
   width="53px"
   height="51px"
   viewBox="22 23 53 51"
   version="1.1"
   id="svg11"
   sodipodi:docname="3.svg"
   inkscape:version="0.92.3 (2405546, 2018-03-11)">
  <metadata
     id="metadata15">
    <rdf:RDF>
      <cc:Work
         rdf:about="">
        <dc:format>image/svg+xml</dc:format>
        <dc:type
           rdf:resource="http://purl.org/dc/dcmitype/StillImage" />
      </cc:Work>
    </rdf:RDF>
  </metadata>
  <sodipodi:namedview
     pagecolor="#ffffff"
     bordercolor="#666666"
     borderopacity="1"
     objecttolerance="10"
     gridtolerance="10"
     guidetolerance="10"
     inkscape:pageopacity="0"
     inkscape:pageshadow="2"
     inkscape:window-width="716"
     inkscape:window-height="480"
     id="namedview13"
     showgrid="false"
     inkscape:zoom="0.28921569"
     inkscape:cx="281.4756"
     inkscape:cy="22.349778"
     inkscape:window-x="0"
     inkscape:window-y="0"
     inkscape:window-maximized="0"
     inkscape:current-layer="svg11" />
  <!-- Generator: Sketch 39 (31667) - http://www.bohemiancoding.com/sketch -->
  <desc
     id="desc2">Created with Sketch.</desc>
  <defs
     id="defs4" />
  <path
     d="M28.726,41.347 L36.497,41.347 M29.789,41.347 L26.066,41.347 C24.89,41.347 23.938,42.299 23.938,43.475 C23.938,44.65 24.89,45.603 26.066,45.603 L30.917,45.603 M31.45,50.924 C32.92,50.924 34.11,49.733 34.11,48.264 C34.11,46.795 32.92,45.603 31.45,45.603 L29.322,45.603 M31.466,50.922 C29.802,50.922 28.454,52.271 28.454,53.934"
     id="Stroke-1"
     stroke="#42484D"
     stroke-width="1.5"
     fill="none"
     inkscape:export-xdpi="96"
     inkscape:export-ydpi="96" />
  <path
     d="M23.256,72.524 C23.256,72.901 23.563,73.206 23.939,73.206 L64.859,73.206 C65.235,73.206 65.541,72.901 65.541,72.524 L65.541,54.793 C65.541,54.416 65.235,54.111 64.859,54.111 L23.939,54.111 C23.563,54.111 23.256,54.416 23.256,54.793 L23.256,72.524 L23.256,72.524 Z"
     id="Stroke-2"
     stroke="#42484D"
     stroke-width="1.5"
     stroke-linecap="round"
     fill="none"
     inkscape:export-xdpi="96"
     inkscape:export-ydpi="96" />
  <path
     d="M63.388,57.457 L60.682,57.457 M59.474,57.457 L56.768,57.457 M55.559,57.457 L52.854,57.457 M51.646,57.457 L48.939,57.457 M47.731,57.457 L45.025,57.457 M43.816,57.457 L41.111,57.457 M39.902,57.457 L37.196,57.457 M35.989,57.457 L33.283,57.457 M32.074,57.457 L29.368,57.457 M28.16,57.457 L25.454,57.457 M63.388,60.609 L60.682,60.609 M59.474,60.609 L56.768,60.609 M55.559,60.609 L52.854,60.609 M51.646,60.609 L48.939,60.609 M47.731,60.609 L45.025,60.609 M43.816,60.609 L41.111,60.609 M39.902,60.609 L37.196,60.609 M35.989,60.609 L33.283,60.609 M32.074,60.609 L29.368,60.609 M28.16,60.609 L25.454,60.609 M63.388,63.762 L60.682,63.762 M59.474,63.762 L56.768,63.762 M55.559,63.762 L52.854,63.762 M51.646,63.762 L48.939,63.762 M47.731,63.762 L45.025,63.762 M43.816,63.762 L41.111,63.762 M39.902,63.762 L37.196,63.762 M35.989,63.762 L33.283,63.762 M32.074,63.762 L29.368,63.762 M28.16,63.762 L25.454,63.762 M63.388,66.915 L60.682,66.915 M59.474,66.915 L56.768,66.915 M55.559,66.915 L52.854,66.915 M51.646,66.915 L48.939,66.915 M47.731,66.915 L45.025,66.915 M43.816,66.915 L41.111,66.915 M39.902,66.915 L37.196,66.915 M35.989,66.915 L33.283,66.915 M32.074,66.915 L29.368,66.915 M28.16,66.915 L25.454,66.915 M63.388,70.067 L60.682,70.067 M59.474,70.067 L56.768,70.067 M55.559,70.067 L52.854,70.067 M51.646,70.067 L37.16,70.067 M35.989,70.067 L33.283,70.067 M32.074,70.067 L29.368,70.067 M28.16,70.067 L25.454,70.067"
     id="Stroke-3"
     stroke="#42484D"
     stroke-width="1.5"
     fill="none"
     inkscape:export-xdpi="96"
     inkscape:export-ydpi="96" />
  <path
     d="M36.488,37.952 C36.509,40.101 36.531,39.355 36.551,41.504 C36.582,43.591 37.627,45.165 42.01,47.189 C44.623,48.395 47.121,49.286 49.516,49.778 L49.334,42.202 L36.488,37.952 Z M62.24,37.786 C62.26,39.935 62.281,39.107 62.302,41.255 C62.312,43.343 61.296,44.937 56.953,47.043 C54.364,48.3 51.883,49.24 49.499,49.779 L49.319,42.286 L62.24,37.786 Z M49.436,42.465 L25.157,33.364 L49.256,23.794 L73.536,32.897 L49.436,42.465 L49.436,42.465 Z M51.416,31.702 L64.573,36.623 L64.63,42.57 L51.416,31.702 Z M51.988,30.635 C51.995,31.377 50.814,31.987 49.352,32.002 C47.888,32.016 46.697,31.427 46.69,30.685 C46.682,29.945 47.862,29.335 49.325,29.32 C50.789,29.306 51.982,29.894 51.988,30.635 L51.988,30.635 Z"
     id="Stroke-4"
     stroke="#42484D"
     stroke-width="1.5"
     stroke-linecap="round"
     stroke-linejoin="round"
     fill="none"
     inkscape:export-xdpi="96"
     inkscape:export-ydpi="96" />
  <path
     d="M66.163,46.666 L66.163,44.241 C66.163,43.475 65.543,42.855 64.778,42.855 C64.013,42.855 63.393,43.475 63.393,44.241 L63.393,46.666 L66.163,46.666 L66.163,46.666 Z"
     id="Stroke-5"
     stroke="#42484D"
     stroke-width="1.5"
     fill="none"
     inkscape:export-xdpi="96"
     inkscape:export-ydpi="96" />
</svg>
