<?xml version="1.0" encoding="UTF-8" standalone="no"?>
<svg width="81px" height="31px" viewBox="0 0 81 31" version="1.1" xmlns="http://www.w3.org/2000/svg" xmlns:xlink="http://www.w3.org/1999/xlink">
    <!-- Generator: Sketch 47.1 (45422) - http://www.bohemiancoding.com/sketch -->
    <title>bdo</title>
    <desc>Created with Sketch.</desc>
    <defs>
        <polygon id="path-1" points="0.0170642202 30.9829358 80.6207615 30.9829358 80.6207615 0.0406697248 0.0170642202 0.0406697248"></polygon>
    </defs>
    <g id="Page-1" stroke="none" stroke-width="1" fill="none" fill-rule="evenodd">
        <g id="Artboard" transform="translate(-357.000000, -804.000000)">
            <g id="bdo" transform="translate(357.000000, 804.000000)">
                <path d="M15.2926697,3.89661468 L20.2205321,3.89661468 C21.5734404,3.89661468 23.2861193,4.21941284 23.2861193,6.51682569 C23.2861193,8.81480734 20.8374037,9.75134862 19.0209174,9.75134862 L15.2926697,9.75134862 L15.2926697,3.89661468 Z M15.2926697,12.8738165 L18.1003028,12.8738165 C22.7144679,12.8738165 25.0662018,13.8820275 25.0662018,16.582156 C25.0662018,18.9754128 23.1797523,19.9873211 20.2213853,19.9873211 C19.4478073,19.9873211 16.7809541,19.9873211 15.7286606,19.9873211 L10.5909083,23.5847431 L10.5909083,23.5850275 L20.1861193,23.5827523 C25.9324954,23.5827523 29.8012385,21.514 29.8012385,16.726633 C29.8012385,12.5507339 26.3770183,10.9108624 23.3216697,10.9108624 C25.433367,10.9108624 27.9284404,9.01844037 27.9284404,5.80979817 C27.9284404,2.60172477 24.9942477,0.29833945 21.6488073,0.29833945 L11.8550826,0.298623853 L9.73115596,0.298623853 L10.5909083,2.20555046 L10.5909083,21.9096055 L15.2926697,18.6167798 L15.2926697,12.8738165 L15.2926697,12.8738165 Z" id="Fill-2" fill="#DCCBB3"></path>
                <path d="M37.5390092,3.89661468 L40.7413945,3.89661468 C42.0627339,3.89661468 48.8013945,4.23078899 48.8013945,11.9418257 C48.8013945,20.7401376 40.7413945,19.9856147 40.7413945,19.9856147 L37.9761376,19.9867523 L32.8366789,23.5844587 L32.8366789,23.5850275 L42.0627339,23.5850275 C47.8088257,23.5850275 53.6999633,20.0510275 53.6999633,11.9418257 C53.6999633,4.75210092 48.5559541,0.298623853 42.0627339,0.298623853 L31.9774954,0.298623853 L32.8366789,2.20555046 L32.8366789,21.9087523 L37.5390092,18.6167798 L37.5390092,3.89661468" id="Fill-3" fill="#DCCBB3"></path>
                <g id="Group-8">
                    <mask id="mask-2" fill="white">
                        <use xlink:href="#path-1"></use>
                    </mask>
                    <g id="Clip-5"></g>
                    <path d="M60.7713761,11.9415413 C60.7713761,5.35702752 65.3078991,3.50698165 68.2469266,3.50698165 C71.1853853,3.50698165 75.7219083,5.35702752 75.7219083,11.9415413 C75.7219083,18.5263394 71.1853853,20.3758165 68.2469266,20.3758165 C65.3078991,20.3758165 60.7713761,18.5263394 60.7713761,11.9415413 Z M55.8725229,11.9415413 C55.8725229,21.2324404 63.3813486,23.8421284 68.2469266,23.8421284 C73.1110826,23.8421284 80.6207615,21.2324404 80.6207615,11.9415413 C80.6207615,2.65092661 73.1110826,0.0406697248 68.2469266,0.0406697248 C63.3813486,0.0406697248 55.8725229,2.65092661 55.8725229,11.9415413 L55.8725229,11.9415413 Z" id="Fill-4" fill="#DCCBB3" mask="url(#mask-2)"></path>
                    <polyline id="Fill-6" fill="#DCCBB3" mask="url(#mask-2)" points="0 0.298623853 0 29.3268532 4.59255046 26.1102477 4.59255046 0.298623853 0 0.298623853"></polyline>
                    <polyline id="Fill-7" fill="#DCCBB3" mask="url(#mask-2)" points="5.45144954 27.1838716 0 31 80.3628073 31 80.3628073 27.1838716 5.45144954 27.1838716"></polyline>
                </g>
            </g>
        </g>
    </g>
</svg>