
<svg width="91px" height="56px" viewBox="331 0 91 56" version="1.1" xmlns="http://www.w3.org/2000/svg" xmlns:xlink="http://www.w3.org/1999/xlink">
    <!-- Generator: Sketch 39 (31667) - http://www.bohemiancoding.com/sketch -->
    <desc>Created with Sketch.</desc>
    <defs></defs>
    <g id="EF_logo_00" stroke="none" stroke-width="1" fill="none" fill-rule="evenodd" transform="translate(331.000000, 0.000000)">
        <g id="Group" fill="#FFFFFF">
            <path d="M12.5415676,0.064 L10.7214087,8.122 C12.7796987,5.302 15.2006975,2.611 17.9645609,0.064 L12.5415676,0.064 L12.5415676,0.064 Z" id="Shape"></path>
            <path d="M15.1136033,16.915 C12.9781412,21.234 11.8944245,25.61 11.8944245,29.918 C11.8944245,33.231 12.544875,36.391 13.8281367,39.314 C14.9372099,41.842 16.5049059,44.149 18.4959459,46.193 L27.3729415,46.193 C26.1271635,45.471 24.9795042,44.634 23.9376809,43.687 C18.9214949,39.138 16.5401845,32.935 17.2402457,26.226 C17.5853152,22.913 18.6613147,19.598 20.4362728,16.369 C22.2696613,13.033 24.8020084,9.891 27.9627568,7.022 C30.9746734,4.29 34.3856799,2.067 38.0998625,0.422 C38.3765796,0.298 38.6532967,0.179 38.9322187,0.064 L30.3506819,0.064 C28.4048427,1.358 26.5427903,2.804 24.786574,4.399 C20.5895145,8.206 17.3339546,12.417 15.1136033,16.915 L15.1136033,16.915 Z" id="Shape"></path>
            <path d="M26.4667207,10.784 L30.8070997,10.784 C31.0353086,10.568 31.2668249,10.35 31.5060584,10.134 C36.109925,5.96 41.8327869,3.264 47.7055833,2.488 L48.2535051,0.064 L43.5206509,0.064 C38.4361124,1.519 33.4342583,4.219 29.1545144,8.101 C28.1953756,8.97 27.3012817,9.865 26.4667207,10.784 L26.4667207,10.784 Z" id="Shape"></path>
            <path d="M53.5133345,30.006 C56.5285585,27.27 58.1888609,24.124 58.1888609,21.143 C58.1888609,18.849 57.2308245,16.772 55.4205877,15.127 C54.5562602,14.345 53.5353837,13.754 52.3888269,13.364 L51.8078312,15.942 C52.3811097,16.226 52.903675,16.577 53.3622977,16.993 C54.9498379,18.433 55.7160466,20.411 55.5264237,22.565 C55.3379033,24.703 54.204576,26.818 52.3326015,28.516 C51.1959668,29.547 49.8465576,30.366 48.4243862,30.922 L47.8797717,33.333 C49.8730166,32.66 51.8199583,31.543 53.5133345,30.006 L53.5133345,30.006 Z" id="Shape"></path>
            <path d="M59.872315,21.144 C59.872315,24.53 58.0378241,28.063 54.7039897,31.086 C52.6093186,32.986 50.1100452,34.355 47.4883989,35.069 L46.8478706,37.902 C50.2235984,37.088 53.5552279,35.308 56.3775216,32.746 C63.7055631,26.101 64.8146364,17.083 58.9550696,11.766 C57.429267,10.378 55.5286286,9.42 53.3898592,8.93 L52.7261792,11.863 C54.2034735,12.327 55.5264237,13.067 56.6090379,14.049 C58.7456024,15.985 59.872315,18.437 59.872315,21.144 L59.872315,21.144 Z" id="Shape"></path>
            <path d="M53.8484819,22.444 C53.9984162,20.744 53.4030887,19.193 52.172745,18.075 C51.9500484,17.873 51.7075075,17.692 51.4506347,17.531 L48.8532425,29.025 C49.676779,28.596 50.4529098,28.063 51.1419463,27.436 C52.7316915,25.994 53.6919328,24.221 53.8484819,22.444 L53.8484819,22.444 Z" id="Shape"></path>
            <path d="M5.0580795,42.803 C4.52669451,41.599 4.08240374,40.37 3.7252072,39.111 L2.12553995,46.192 L6.82862781,46.192 C6.16164043,45.1 5.57072269,43.97 5.0580795,42.803 L5.0580795,42.803 Z" id="Shape"></path>
            <path d="M10.2109704,29.919 C10.2109704,25.394 11.3442977,20.805 13.5767762,16.288 C15.8820168,11.623 19.2544373,7.261 23.5970213,3.32 C24.8769756,2.157 26.2098479,1.072 27.5890234,0.064 L20.3602032,0.064 C20.0691541,0.318 19.7825149,0.573 19.4947733,0.833 C15.4829269,4.472 12.1998055,8.427 9.70383952,12.625 L4.60166169,35.227 C4.96216561,37.659 5.63576774,40.004 6.62026316,42.237 C7.22441041,43.609 7.94321333,44.928 8.77005719,46.193 L16.2976437,46.193 C14.6163945,44.276 13.2647804,42.161 12.2615432,39.878 C10.9011094,36.778 10.2109704,33.426 10.2109704,29.919 L10.2109704,29.919 Z" id="Shape"></path>
            <path d="M14.867755,53.573 C14.6064724,54.737 13.8027801,55.464 12.9153011,55.464 C12.3651743,55.464 11.854736,55.245 11.8481213,54.642 C11.8459163,54.491 11.8745803,54.321 11.9120639,54.182 L12.5845635,51.23 L11.9704942,51.23 L11.3068141,54.166 C11.2616134,54.375 11.2329494,54.561 11.2329494,54.703 C11.2428716,55.58 11.8922196,55.935 12.7697765,55.935 C13.5227557,55.935 14.1820259,55.508 14.5590667,54.97 L14.5778085,54.97 L14.4091323,55.801 L14.9768984,55.801 L16.0132094,51.229 L15.39914,51.229 L14.867755,53.573 L14.867755,53.573 Z" id="Shape"></path>
            <polygon id="Shape" points="1.97119576 49.987 5.97973478 49.987 6.09990276 49.473 1.41996652 49.473 0 55.801 4.77033783 55.801 4.89050581 55.29 0.784950436 55.29 1.34720426 52.789 5.08123112 52.789 5.20250156 52.273 1.45745011 52.273"></polygon>
            <path d="M10.6530563,49.473 L10.0764705,52.09 L10.0566262,52.09 C9.8240075,51.37 9.19781108,51.096 8.40624589,51.096 C6.71286967,51.096 5.66553412,52.664 5.67986608,54.066 C5.69199312,55.184 6.32149691,55.936 7.61468071,55.936 C8.50326224,55.936 9.01700789,55.58 9.44035195,54.976 L9.46240112,54.976 L9.24631925,55.802 L9.84164683,55.802 L11.270433,49.474 L10.6530563,49.473 L10.6530563,49.473 L10.6530563,49.473 Z M7.67090609,55.464 C6.74153359,55.464 6.30385758,54.879 6.29503791,54.1 C6.28291087,52.982 7.00061133,51.566 8.41837294,51.566 C9.3168766,51.566 9.83172471,52.09 9.84054437,52.887 C9.85377387,54.016 9.08425786,55.464 7.67090609,55.464 L7.67090609,55.464 Z" id="Shape"></path>
            <path d="M24.3896889,27.598 C24.3896889,27.816 24.3952012,28.034 24.4040209,28.251 L28.2141174,28.251 C28.1523797,27.727 28.1193059,27.195 28.1193059,26.655 C28.1193059,23.511 29.1721538,20.296 31.1003537,17.37 L27.4975194,17.37 C25.4667908,20.662 24.3896889,24.151 24.3896889,27.598 L24.3896889,27.598 Z" id="Shape"></path>
            <path d="M41.4414142,17.37 L38.3368911,17.37 C35.8067489,19.885 34.3680406,22.931 34.3680406,25.824 C34.3680406,26.675 34.4871061,27.484 34.7197248,28.25 L37.7151045,28.25 C37.2035638,27.31 36.932359,26.251 36.932359,25.14 C36.932359,22.704 38.16601,20.243 40.4073081,18.209 C40.7380457,17.91 41.0820127,17.63 41.4414142,17.37 L41.4414142,17.37 Z" id="Shape"></path>
            <path d="M29.80276,26.656 C29.80276,27.2 29.8391412,27.732 29.9052887,28.252 L32.988865,28.252 C32.7882176,27.473 32.6845865,26.659 32.6845865,25.826 C32.6845865,24.101 33.1101355,22.359 33.9480039,20.65 C34.5080528,19.501 35.2411877,18.407 36.1308717,17.372 L33.0902912,17.372 C30.9691611,20.264 29.80276,23.505 29.80276,26.656 L29.80276,26.656 Z" id="Shape"></path>
            <path d="M57.5681768,33.828 C54.3159243,36.779 50.4165286,38.769 46.4763421,39.555 L45.788408,42.606 C50.8828686,41.696 55.9442555,39.231 59.9020814,35.641 C64.3901899,31.571 67.292963,26.631 68.0801184,21.73 C68.2223355,20.843 68.290688,19.97 68.2917904,19.115 C68.2917904,18.913 68.2873806,18.711 68.2807658,18.511 C68.1220118,14.529 66.4021766,10.964 63.2083544,8.066 C60.8248391,5.904 57.8063078,4.581 54.4934201,4.053 L53.7305188,7.433 C56.1901037,7.986 58.3795862,9.084 60.1501346,10.688 C66.6844059,16.617 65.5742303,26.566 57.5681768,33.828 L57.5681768,33.828 Z" id="Shape"></path>
            <path d="M64.3979071,6.985 C66.6667666,9.044 68.2686388,11.427 69.1583228,14.071 C69.1836793,14.147 69.2090359,14.224 69.2332899,14.3 L70.0270601,10.785 L72.272768,10.785 C71.209998,8.339 69.5982037,6.127 67.4737662,4.196 C65.4154762,2.329 62.9812479,0.957 60.3110935,0.064 L55.3941287,0.064 L54.8318749,2.552 C55.6289523,2.679 56.4094929,2.851 57.176804,3.064 C59.9649215,3.851 62.3958425,5.169 64.3979071,6.985 L64.3979071,6.985 Z" id="Shape"></path>
            <path d="M74.0708778,10.784 L79.8003545,10.784 C78.7122279,6.763 76.5613315,3.113 73.4369641,0.064 L64.2556899,0.064 C65.8718941,0.901 67.3469835,1.921 68.6655238,3.116 C71.1140841,5.341 72.9309357,7.917 74.0708778,10.784 L74.0708778,10.784 Z" id="Shape"></path>
            <path d="M46.622969,7.29 L47.3439769,4.091 C42.4226022,4.865 37.3953916,7.129 33.1795903,10.785 L37.7724324,10.785 C40.4944023,9 43.5250607,7.798 46.622969,7.29 L46.622969,7.29 Z" id="Shape"></path>
            <path d="M46.2569528,8.912 C44.4191545,9.281 42.6100202,9.912 40.8923899,10.784 L45.8358137,10.784 L46.2569528,8.912 L46.2569528,8.912 Z" id="Shape"></path>
            <path d="M18.9137776,26.37 C18.2633271,32.616 20.470449,38.385 25.1261312,42.61 C26.7842287,44.112 28.7344778,45.314 30.9349849,46.193 L37.8055061,46.193 L38.2398748,44.302 C34.2831513,43.749 30.7993825,42.175 28.0322117,39.666 C26.6089378,38.377 25.4513564,36.884 24.5837216,35.249 L20.5851047,35.249 L22.1285466,28.251 L22.7205668,28.251 C22.7117471,28.034 22.7062348,27.818 22.7062348,27.598 C22.7062348,24.15 23.7017548,20.671 25.5891637,17.371 L24.6024634,17.371 L25.9463603,11.372 C21.9135672,16.014 19.4517774,21.221 18.9137776,26.37 L18.9137776,26.37 Z" id="Shape"></path>
            <path d="M40.3147016,35.259 L40.3191115,35.248 L40.2750131,35.248 L33.7793278,35.248 C35.4749089,36.67 37.4692563,37.631 39.6642511,38.092 L40.3147016,35.259 L40.3147016,35.259 Z" id="Shape"></path>
            <path d="M19.1607283,51.566 C19.8850436,51.566 20.4263507,51.975 20.3855597,52.655 L21.0007315,52.655 C21.0271905,51.593 20.1937319,51.096 19.0989907,51.096 C17.3692333,51.096 16.3759182,52.623 16.3902502,54.048 C16.4023772,55.175 17.1046433,55.936 18.3559337,55.936 C19.5752527,55.936 20.3326417,55.367 20.6931456,54.321 L20.0790763,54.321 C19.8222034,54.985 19.2412078,55.464 18.4286959,55.464 C17.471762,55.464 17.0175491,54.861 17.0087294,54.047 C16.9966024,52.857 17.6856389,51.566 19.1607283,51.566 L19.1607283,51.566 Z" id="Shape"></path>
            <path d="M39.3202841,39.588 C36.6346952,39.035 34.2136964,37.816 32.1984023,35.989 C31.9338123,35.749 31.6857591,35.503 31.4465256,35.248 L26.4766428,35.248 C27.2108801,36.472 28.131433,37.594 29.2228669,38.586 C31.7485992,40.877 34.9446264,42.308 38.5827393,42.8 L39.3202841,39.588 L39.3202841,39.588 Z" id="Shape"></path>
            <polygon id="Shape" points="48.0407306 55.801 48.6592098 55.801 49.6977257 51.23 49.080349 51.23"></polygon>
            <path d="M59.6430037,49.847 L59.0267294,49.847 L58.7191434,51.23 L57.8085127,51.23 L57.696062,51.698 L58.6066927,51.698 L57.9452176,54.73 C57.8989143,54.932 57.8790701,55.104 57.8790701,55.199 C57.8845824,55.749 58.3608444,55.857 58.8161598,55.857 C59.0223195,55.857 59.2372989,55.839 59.4445611,55.823 L59.5459873,55.333 C59.3001391,55.37 59.0686228,55.386 58.8249795,55.386 C58.5901558,55.386 58.5019591,55.228 58.5019591,55.068 C58.4986518,54.928 58.5129837,54.848 58.5625943,54.632 L59.2240694,51.699 L60.2493558,51.699 L60.3419623,51.231 L59.3343153,51.231 L59.6430037,49.847 L59.6430037,49.847 Z" id="Shape"></path>
            <polygon id="Shape" points="50.0968157 49.473 49.4816439 49.473 49.2754841 50.369 49.8917584 50.369"></polygon>
            <path d="M62.0265189,46.193 L63.1796904,41.1 C60.6903392,43.143 57.8867873,44.859 54.9123543,46.193 L62.0265189,46.193 L62.0265189,46.193 Z" id="Shape"></path>
            <path d="M53.2498469,51.175 C53.1429085,51.167 53.0260479,51.167 52.9180069,51.167 C52.0184008,51.159 51.4848109,51.626 51.1022578,52.283 L51.083516,52.283 L51.3282618,51.23 L50.7704178,51.23 L49.7307995,55.802 L50.3481762,55.802 L50.8927907,53.411 C51.0868234,52.55 51.6645116,51.744 52.7669701,51.726 C52.8860356,51.726 53.0006913,51.734 53.1186544,51.734 L53.2498469,51.175 L53.2498469,51.175 Z" id="Shape"></path>
            <path d="M55.4426369,51.564 C56.1371857,51.564 56.6818002,51.867 56.6343945,52.567 L57.2528737,52.567 C57.2627958,51.511 56.4943822,51.093 55.4371246,51.093 C54.62792,51.093 53.5750722,51.458 53.5849943,52.343 C53.5927115,53.098 54.2740309,53.373 54.9487355,53.614 C55.6146204,53.843 56.3102717,54.03 56.3179889,54.625 C56.3235012,55.208 55.6013909,55.466 55.0545715,55.466 C54.3434857,55.466 53.6147607,55.197 53.6213754,54.315 L53.0006913,54.315 C52.9554905,55.455 53.9466007,55.935 54.9145592,55.935 C55.8703907,55.935 56.9419804,55.561 56.9331607,54.534 C56.9232386,53.691 55.9718169,53.434 55.2783705,53.189 C54.707297,52.982 54.2078834,52.769 54.2034735,52.344 C54.1946539,51.717 54.9090469,51.564 55.4426369,51.564 L55.4426369,51.564 Z" id="Shape"></path>
            <path d="M73.7544722,19.115 L69.9730396,19.115 C69.9730396,20.046 69.9013798,20.993 69.7459331,21.951 C69.3093596,24.671 68.2642289,27.398 66.6954305,29.996 L70.4702484,29.996 C72.114014,27.05 73.1767839,23.988 73.5880009,20.939 C73.6706853,20.326 73.7236033,19.719 73.7544722,19.115 L73.7544722,19.115 Z" id="Shape"></path>
            <path d="M83.6192706,0.064 L75.6804671,0.064 C78.5501665,3.182 80.5257721,6.821 81.5334192,10.784 L87.6730104,10.784 C87.2959697,8.404 86.6256749,6.104 85.6731508,3.919 C85.0888478,2.581 84.4042211,1.295 83.6192706,0.064 L83.6192706,0.064 Z" id="Shape"></path>
            <path d="M85.5507779,0.064 C86.1802817,1.125 86.743638,2.223 87.2375394,3.357 C87.8350718,4.727 88.3267683,6.136 88.706014,7.582 L90.4015952,0.064 L85.5507779,0.064 L85.5507779,0.064 Z" id="Shape"></path>
            <path d="M80.5511287,19.115 L75.4390287,19.115 C75.4103648,19.781 75.3497296,20.449 75.2604304,21.123 C74.8569306,24.109 73.8636156,27.105 72.3422229,29.996 L77.5359047,29.996 C79.0771417,26.783 80.066047,23.472 80.4497025,20.165 C80.4926984,19.814 80.5257721,19.467 80.5511287,19.115 L80.5511287,19.115 Z" id="Shape"></path>
            <path d="M82.1254394,20.325 C81.7472961,23.577 80.8102064,26.832 79.3637809,29.997 L83.2455372,29.997 L85.6632286,19.115 L82.2378902,19.115 C82.2092262,19.518 82.1706402,19.922 82.1254394,20.325 L82.1254394,20.325 Z" id="Shape"></path>
            <path d="M45.4223917,44.214 L44.9769985,46.192 L50.633713,46.192 C55.2805755,44.671 59.6672577,42.181 63.2491453,38.929 C63.4288461,38.768 63.604137,38.602 63.7783254,38.439 L65.181755,32.237 C64.0087392,33.809 62.6416907,35.314 61.0927365,36.719 C56.7258985,40.683 51.0780037,43.348 45.4223917,44.214 L45.4223917,44.214 Z" id="Shape"></path>
            <polygon id="Shape" points="30.8214317 49.473 30.6185793 50.369 31.2326487 50.369 31.4388084 49.473"></polygon>
            <polygon id="Shape" points="29.3871332 55.801 29.9978952 55.801 31.0375135 51.23 30.4190343 51.23"></polygon>
            <path d="M25.9364381,52.115 C25.9276185,51.31 24.8593362,51.096 24.1769144,51.096 C23.0909928,51.096 22.2167432,51.556 22.0601941,52.594 L22.675366,52.594 C22.7944315,51.83 23.4669312,51.566 24.2485742,51.566 C24.7215289,51.566 25.3146516,51.681 25.3201639,52.226 C25.3256762,52.824 25.1228238,53.032 24.7281437,53.118 C24.3356684,53.205 23.7667999,53.161 23.1207592,53.252 C22.2244605,53.392 21.3799773,53.7 21.3887969,54.666 C21.3987191,55.561 22.0976777,55.936 23.0149232,55.936 C23.7204966,55.936 24.4084307,55.625 24.760115,55.095 L24.7744469,55.112 C24.7678322,55.191 24.760115,55.281 24.7623199,55.362 C24.7711395,55.662 24.9596599,55.857 25.2992171,55.857 C25.4645859,55.857 25.6707457,55.841 25.808553,55.812 L25.8912374,55.367 C25.8041431,55.378 25.7357907,55.386 25.647594,55.386 C25.4998646,55.386 25.3256762,55.362 25.3223688,55.2 C25.3190614,54.924 25.423795,54.687 25.6365694,53.658 C25.7346882,53.252 25.9430529,52.56 25.9364381,52.115 L25.9364381,52.115 Z M24.9320985,54.125 C24.7468855,54.924 24.1217915,55.464 23.1383985,55.464 C22.5518906,55.464 22.0149933,55.227 22.0072761,54.642 C21.997354,53.684 23.2365173,53.652 23.988394,53.594 C24.2992873,53.573 24.9034346,53.558 25.0974672,53.338 L25.118414,53.356 L24.9320985,54.125 L24.9320985,54.125 Z" id="Shape"></path>
            <polygon id="Shape" points="44.8127322 49.988 48.616214 49.988 48.7231524 49.473 44.261503 49.473 42.8349217 55.801 43.4974992 55.801 44.179921 52.789 47.5677759 52.789 47.6703046 52.273 44.2989866 52.273"></polygon>
            <path d="M34.1409341,51.096 C32.3417219,51.096 31.3395871,52.531 31.356124,54.029 C31.3693535,55.175 32.0936687,55.936 33.387955,55.936 C35.2566221,55.936 36.1727651,54.429 36.1540233,52.886 C36.1429987,51.762 35.31395,51.096 34.1409341,51.096 L34.1409341,51.096 Z M33.5026107,55.464 C32.4773243,55.464 31.9823204,54.861 31.9723983,53.976 C31.9602713,52.904 32.6923037,51.565 34.039508,51.565 C35.0262083,51.565 35.5311343,52.151 35.5399539,53.002 C35.5509785,54.066 34.8498149,55.464 33.5026107,55.464 L33.5026107,55.464 Z" id="Shape"></path>
            <path d="M41.5990657,19.29 C39.6741732,21.036 38.6147106,23.112 38.6147106,25.141 C38.6147106,26.313 38.9774195,27.373 39.6686609,28.25 L41.4711806,28.25 L43.8050852,17.747 C43.0223396,18.158 42.2737703,18.676 41.5990657,19.29 L41.5990657,19.29 Z" id="Shape"></path>
            <path d="M39.7237839,51.096 C38.9719072,51.096 38.3104321,51.52 37.9355962,52.062 L37.9212643,52.062 L38.0844281,51.23 L37.5188669,51.23 L36.4825559,55.802 L37.1010352,55.802 L37.6313177,53.456 C37.8926003,52.295 38.6951901,51.567 39.587079,51.567 C40.132796,51.567 40.6421318,51.788 40.649849,52.392 C40.649849,52.542 40.6211851,52.71 40.5870089,52.852 L39.9123043,55.802 L40.529681,55.802 L41.193361,52.871 C41.2429717,52.655 41.2639184,52.471 41.2628159,52.326 C41.2506889,51.451 40.6024433,51.096 39.7237839,51.096 L39.7237839,51.096 Z" id="Shape"></path>
            <path d="M28.6584081,49.847 L28.0410314,49.847 L27.7356504,51.23 L26.8272246,51.23 L26.7114665,51.699 L27.6231996,51.699 L26.9584172,54.73 C26.9143188,54.935 26.8977819,55.103 26.8977819,55.2 C26.9032942,55.752 27.374044,55.857 27.8326667,55.857 C28.037724,55.857 28.2538059,55.841 28.4577607,55.82 L28.5624942,55.333 C28.3188509,55.367 28.0840273,55.386 27.838179,55.386 C27.6077652,55.386 27.5162611,55.228 27.5140562,55.069 C27.5118513,54.925 27.5283882,54.847 27.5791013,54.633 L28.2383715,51.699 L29.2680677,51.699 L29.3584693,51.23 L28.3508222,51.23 L28.6584081,49.847 L28.6584081,49.847 Z" id="Shape"></path>
        </g>
    </g>
</svg>