<?xml version="1.0" encoding="UTF-8" standalone="no"?>
<svg
   xmlns:dc="http://purl.org/dc/elements/1.1/"
   xmlns:cc="http://creativecommons.org/ns#"
   xmlns:rdf="http://www.w3.org/1999/02/22-rdf-syntax-ns#"
   xmlns:svg="http://www.w3.org/2000/svg"
   xmlns="http://www.w3.org/2000/svg"
   xmlns:sodipodi="http://sodipodi.sourceforge.net/DTD/sodipodi-0.dtd"
   xmlns:inkscape="http://www.inkscape.org/namespaces/inkscape"
   width="53px"
   height="51px"
   viewBox="22 23 53 51"
   version="1.1"
   id="svg42"
   sodipodi:docname="icon-calendar.svg"
   inkscape:version="0.92.3 (2405546, 2018-03-11)">
  <metadata
     id="metadata46">
    <rdf:RDF>
      <cc:Work
         rdf:about="">
        <dc:format>image/svg+xml</dc:format>
        <dc:type
           rdf:resource="http://purl.org/dc/dcmitype/StillImage" />
      </cc:Work>
    </rdf:RDF>
  </metadata>
  <sodipodi:namedview
     pagecolor="#ffffff"
     bordercolor="#666666"
     borderopacity="1"
     objecttolerance="10"
     gridtolerance="10"
     guidetolerance="10"
     inkscape:pageopacity="0"
     inkscape:pageshadow="2"
     inkscape:window-width="716"
     inkscape:window-height="480"
     id="namedview44"
     showgrid="false"
     inkscape:zoom="4.627451"
     inkscape:cx="26.5"
     inkscape:cy="25.5"
     inkscape:window-x="0"
     inkscape:window-y="0"
     inkscape:window-maximized="0"
     inkscape:current-layer="svg42" />
  <!-- Generator: Sketch 39 (31667) - http://www.bohemiancoding.com/sketch -->
  <desc
     id="desc2">Created with Sketch.</desc>
  <defs
     id="defs4" />
  <g
     id="Master-Icons-05"
     stroke="none"
     stroke-width="1"
     fill="none"
     fill-rule="evenodd"
     transform="translate(23.000000, 23.000000)"
     inkscape:export-xdpi="96"
     inkscape:export-ydpi="96">
    <path
       d="M17.923,22.877 C17.428,21.288 17.163,19.599 17.163,17.847 C17.163,8.504 24.735,0.931 34.078,0.931 C43.42,0.931 50.993,8.504 50.993,17.847 C50.993,26.746 44.121,34.041 35.393,34.712"
       id="Stroke-1"
       stroke="#42484D"
       stroke-width="1.5"
       stroke-linejoin="bevel" />
    <path
       d="M34.078,3.928 L34.078,6.82 M41.037,5.794 L39.592,8.297 M46.131,10.889 L43.628,12.333 M47.996,17.847 L45.104,17.847 M46.131,24.805 L43.628,23.36 M41.037,29.901 L39.592,27.397 M20.16,17.847 L23.051,17.847 M22.024,10.889 L24.528,12.334 M27.119,5.794 L28.563,8.297"
       id="Stroke-2"
       stroke="#42484D"
       stroke-width="1.5" />
    <path
       d="M33.429,17.266 C33.108,17.624 33.14,18.175 33.498,18.496 C33.856,18.815 34.406,18.785 34.727,18.428 C35.048,18.069 35.017,17.518 34.658,17.199 C34.3,16.878 33.75,16.909 33.429,17.266 L33.429,17.266 Z"
       id="Stroke-3"
       stroke="#42484D"
       stroke-width="1.5"
       stroke-linecap="round"
       stroke-linejoin="bevel" />
    <path
       d="M40.714,10.426 L34.658,17.199 M27.737,12.17 L33.701,17.505"
       id="Stroke-4"
       stroke="#42484D"
       stroke-width="1.5" />
    <path
       d="M0.007,30.047 L35.338,30.047"
       id="Stroke-5"
       stroke="#42484D"
       stroke-width="1.5"
       stroke-linecap="round"
       stroke-linejoin="round" />
    <polygon
       id="Fill-6"
       fill="#42484D"
       points="5.895 35.935 8.251 35.935 8.251 33.581 5.895 33.581" />
    <polygon
       id="Fill-7"
       fill="#42484D"
       points="9.428 35.935 11.784 35.935 11.784 33.581 9.428 33.581" />
    <polygon
       id="Fill-8"
       fill="#42484D"
       points="12.961 35.935 15.316 35.935 15.316 33.581 12.961 33.581" />
    <polygon
       id="Fill-9"
       fill="#42484D"
       points="16.495 35.935 18.851 35.935 18.851 33.581 16.495 33.581" />
    <polygon
       id="Fill-10"
       fill="#42484D"
       points="20.028 35.935 22.383 35.935 22.383 33.581 20.028 33.581" />
    <polygon
       id="Fill-11"
       fill="#42484D"
       points="23.561 35.935 25.917 35.935 25.917 33.581 23.561 33.581" />
    <polygon
       id="Fill-12"
       fill="#42484D"
       points="27.094 35.935 29.449 35.935 29.449 33.581 27.094 33.581" />
    <polygon
       id="Fill-13"
       fill="#42484D"
       points="5.895 39.469 8.251 39.469 8.251 37.113 5.895 37.113" />
    <polygon
       id="Fill-14"
       fill="#42484D"
       points="9.428 39.469 11.784 39.469 11.784 37.113 9.428 37.113" />
    <polygon
       id="Fill-15"
       fill="#42484D"
       points="12.961 39.469 15.316 39.469 15.316 37.113 12.961 37.113" />
    <polygon
       id="Fill-16"
       fill="#42484D"
       points="16.495 39.469 18.851 39.469 18.851 37.113 16.495 37.113" />
    <polygon
       id="Fill-17"
       fill="#42484D"
       points="20.028 39.469 22.383 39.469 22.383 37.113 20.028 37.113" />
    <polygon
       id="Fill-18"
       fill="#42484D"
       points="23.561 39.469 25.917 39.469 25.917 37.113 23.561 37.113" />
    <polygon
       id="Fill-19"
       fill="#42484D"
       points="27.094 39.469 29.449 39.469 29.449 37.113 27.094 37.113" />
    <polygon
       id="Fill-20"
       fill="#42484D"
       points="5.895 43.002 8.251 43.002 8.251 40.647 5.895 40.647" />
    <polygon
       id="Fill-21"
       fill="#42484D"
       points="9.428 43.002 11.784 43.002 11.784 40.647 9.428 40.647" />
    <polygon
       id="Fill-22"
       fill="#42484D"
       points="12.961 43.002 15.316 43.002 15.316 40.647 12.961 40.647" />
    <polygon
       id="Fill-23"
       fill="#42484D"
       points="16.495 43.002 18.851 43.002 18.851 40.647 16.495 40.647" />
    <polygon
       id="Fill-24"
       fill="#42484D"
       points="20.028 43.002 22.383 43.002 22.383 40.647 20.028 40.647" />
    <polygon
       id="Fill-25"
       fill="#42484D"
       points="23.561 43.002 25.917 43.002 25.917 40.647 23.561 40.647" />
    <polygon
       id="Fill-26"
       fill="#42484D"
       points="27.094 43.002 29.449 43.002 29.449 40.647 27.094 40.647" />
    <polygon
       id="Fill-27"
       fill="#42484D"
       points="5.895 46.535 8.251 46.535 8.251 44.18 5.895 44.18" />
    <polygon
       id="Fill-28"
       fill="#42484D"
       points="9.428 46.535 11.784 46.535 11.784 44.18 9.428 44.18" />
    <polygon
       id="Fill-29"
       fill="#42484D"
       points="12.961 46.535 15.316 46.535 15.316 44.18 12.961 44.18" />
    <polygon
       id="Fill-30"
       fill="#42484D"
       points="16.495 46.535 18.851 46.535 18.851 44.18 16.495 44.18" />
    <polygon
       id="Fill-31"
       fill="#42484D"
       points="20.028 46.535 22.383 46.535 22.383 44.18 20.028 44.18" />
    <polygon
       id="Fill-32"
       fill="#42484D"
       points="23.561 46.535 25.917 46.535 25.917 44.18 23.561 44.18" />
    <polygon
       id="Fill-33"
       fill="#42484D"
       points="27.094 46.535 29.449 46.535 29.449 44.18 27.094 44.18" />
    <path
       d="M7.073,19.448 L7.073,26.514 L7.073,19.448 L7.073,19.448 Z M28.272,19.448 L28.272,26.514 L28.272,19.448 L28.272,19.448 Z"
       id="Stroke-34"
       stroke="#42484D"
       stroke-width="1.5"
       stroke-linecap="round" />
    <polygon
       id="Stroke-35"
       stroke="#42484D"
       stroke-width="1.5"
       stroke-linecap="round"
       stroke-linejoin="round"
       points="0.007 50.069 35.338 50.069 35.338 22.981 0.007 22.981" />
  </g>
</svg>
