<?xml version="1.0" encoding="UTF-8" standalone="no"?>
<svg
   xmlns:dc="http://purl.org/dc/elements/1.1/"
   xmlns:cc="http://creativecommons.org/ns#"
   xmlns:rdf="http://www.w3.org/1999/02/22-rdf-syntax-ns#"
   xmlns:svg="http://www.w3.org/2000/svg"
   xmlns="http://www.w3.org/2000/svg"
   xmlns:sodipodi="http://sodipodi.sourceforge.net/DTD/sodipodi-0.dtd"
   xmlns:inkscape="http://www.inkscape.org/namespaces/inkscape"
   width="41px"
   height="53px"
   viewBox="-1 -1 41 53"
   version="1.1"
   id="svg8"
   sodipodi:docname="icon-cup.svg"
   inkscape:version="0.92.3 (2405546, 2018-03-11)">
  <metadata
     id="metadata12">
    <rdf:RDF>
      <cc:Work
         rdf:about="">
        <dc:format>image/svg+xml</dc:format>
        <dc:type
           rdf:resource="http://purl.org/dc/dcmitype/StillImage" />
      </cc:Work>
    </rdf:RDF>
  </metadata>
  <sodipodi:namedview
     pagecolor="#ffffff"
     bordercolor="#666666"
     borderopacity="1"
     objecttolerance="10"
     gridtolerance="10"
     guidetolerance="10"
     inkscape:pageopacity="0"
     inkscape:pageshadow="2"
     inkscape:window-width="716"
     inkscape:window-height="480"
     id="namedview10"
     showgrid="false"
     inkscape:zoom="4.4528302"
     inkscape:cx="20.5"
     inkscape:cy="26.5"
     inkscape:window-x="0"
     inkscape:window-y="0"
     inkscape:window-maximized="0"
     inkscape:current-layer="svg8" />
  <!-- Generator: Sketch 39 (31667) - http://www.bohemiancoding.com/sketch -->
  <desc
     id="desc2">Created with Sketch.</desc>
  <defs
     id="defs4" />
  <path
     d="M11.939,12.748 C11.432,10.971 11.16,9.094 11.16,7.152 C11.16,5.037 11.486,3.001 12.083,1.083 M21.206,32.59 L21.206,24.864 C27.314,21.282 31.43,14.56 31.43,6.848 C31.43,4.693 31.104,2.617 30.507,0.662 L8.494,0.662 C7.896,2.617 7.571,4.693 7.571,6.848 C7.571,14.56 11.689,21.282 17.797,24.864 L17.797,32.59"
     id="Stroke-1"
     stroke="#42484D"
     stroke-width="1.5"
     fill="none"
     inkscape:export-xdpi="96"
     inkscape:export-ydpi="96" />
  <path
     d="M31.07,2.961 C31.305,4.221 31.43,5.519 31.43,6.848 C31.43,11.976 29.603,16.66 26.587,20.28 C33.387,17.954 38.197,11.074 38.26,2.961 L31.07,2.961 L31.07,2.961 Z M7.571,6.848 C7.571,5.52 7.696,4.221 7.931,2.964 L0.74,2.964 C0.804,11.075 5.616,17.957 12.417,20.281 C9.4,16.661 7.571,11.976 7.571,6.848 L7.571,6.848 Z M6.988,50.338 L32.015,50.338 L32.015,47.565 L6.988,47.565 L6.988,50.338 Z M27.622,34.273 L24.804,34.273 L24.804,32.09 L14.2,32.09 L14.2,34.273 L11.379,34.273 C10.755,34.273 10.245,34.889 10.245,35.643 L10.245,36.648 L28.759,36.648 L28.759,35.643 C28.759,34.889 28.246,34.273 27.622,34.273 L27.622,34.273 Z M7.903,47.565 L31.099,47.565 L31.099,36.648 L7.903,36.648 L7.903,47.565 Z"
     id="Stroke-2"
     stroke="#42484D"
     stroke-width="1.5"
     stroke-linecap="round"
     fill="none"
     inkscape:export-xdpi="96"
     inkscape:export-ydpi="96" />
</svg>
