<?xml version="1.0" encoding="UTF-8" standalone="no"?>
<svg
   xmlns:dc="http://purl.org/dc/elements/1.1/"
   xmlns:cc="http://creativecommons.org/ns#"
   xmlns:rdf="http://www.w3.org/1999/02/22-rdf-syntax-ns#"
   xmlns:svg="http://www.w3.org/2000/svg"
   xmlns="http://www.w3.org/2000/svg"
   xmlns:sodipodi="http://sodipodi.sourceforge.net/DTD/sodipodi-0.dtd"
   xmlns:inkscape="http://www.inkscape.org/namespaces/inkscape"
   width="50px"
   height="50px"
   viewBox="24 23 50 50"
   version="1.1"
   id="svg7"
   sodipodi:docname="icon-cloud.svg"
   inkscape:version="0.92.3 (2405546, 2018-03-11)">
  <metadata
     id="metadata11">
    <rdf:RDF>
      <cc:Work
         rdf:about="">
        <dc:format>image/svg+xml</dc:format>
        <dc:type
           rdf:resource="http://purl.org/dc/dcmitype/StillImage" />
      </cc:Work>
    </rdf:RDF>
  </metadata>
  <sodipodi:namedview
     pagecolor="#ffffff"
     bordercolor="#666666"
     borderopacity="1"
     objecttolerance="10"
     gridtolerance="10"
     guidetolerance="10"
     inkscape:pageopacity="0"
     inkscape:pageshadow="2"
     inkscape:window-width="716"
     inkscape:window-height="480"
     id="namedview9"
     showgrid="false"
     inkscape:zoom="4.72"
     inkscape:cx="25"
     inkscape:cy="25"
     inkscape:window-x="0"
     inkscape:window-y="0"
     inkscape:window-maximized="0"
     inkscape:current-layer="svg7" />
  <!-- Generator: Sketch 39 (31667) - http://www.bohemiancoding.com/sketch -->
  <desc
     id="desc2">Created with Sketch.</desc>
  <defs
     id="defs4" />
  <path
     d="M44.66,52.751 L68.394,52.751 C68.397,52.744 68.399,52.739 68.401,52.734 C68.513,52.744 68.627,52.751 68.741,52.751 C70.97,52.751 72.776,50.944 72.776,48.715 C72.776,46.528 71.036,44.751 68.865,44.686 C68.904,44.342 68.931,43.996 68.931,43.642 C68.931,38.775 64.986,34.827 60.117,34.827 C59.29,34.827 58.493,34.948 57.734,35.161 C56.87,28.859 51.468,24 44.924,24 C37.779,24 31.99,29.793 31.99,36.931 C31.99,36.961 31.991,36.99 31.991,37.019 C28.057,37.467 25,40.804 25,44.857 C25,49.216 28.534,52.751 32.894,52.751 L41.327,52.751 M41.494,39.583 L41.494,72.25 M52.661,39.583 L52.661,72.25 M43.661,42.417 L52.994,42.417 M43.661,47.583 L52.994,47.583 M43.661,52.75 L52.994,52.75 M43.661,57.917 L52.994,57.917 M43.661,63.084 L52.994,63.084 M43.661,68.25 L52.994,68.25"
     id="Master-Icons-04"
     stroke="#42484D"
     stroke-width="1.5"
     fill="none"
     inkscape:export-xdpi="96"
     inkscape:export-ydpi="96" />
</svg>
