<svg width="95px" height="31px" viewBox="760 748 95 31" version="1.1" xmlns="http://www.w3.org/2000/svg" xmlns:xlink="http://www.w3.org/1999/xlink">
    <!-- Generator: Sketch 39 (31667) - http://www.bohemiancoding.com/sketch -->
    <desc>Created with Sketch.</desc>
    <defs>
        <polygon id="path-1" points="94.8933755 30.987554 94.8933755 3.83462439e-05 4.00843874e-05 3.83462439e-05 4.00843874e-05 30.987554 94.8933755 30.987554"></polygon>
    </defs>
    <g id="Page-1" opacity="0.6" stroke="none" stroke-width="1" fill="none" fill-rule="evenodd" transform="translate(760.000000, 748.000000)">
        <mask id="mask-2" fill="white">
            <use xlink:href="#path-1"></use>
        </mask>
        <g id="Clip-2"></g>
        <path d="M19.7146111,17.8282603 C19.7146111,17.8215793 18.7994845,15.2370879 17.6808629,12.084575 C16.5622412,8.93192845 15.6257363,6.29064828 15.599815,6.21488534 L15.5523819,6.07712241 L15.5247236,6.14607069 C15.5092243,6.18388534 14.5772623,8.81247155 13.4535633,11.9871655 C12.329597,15.1621267 11.4032468,17.7776181 11.3946955,17.7999328 C11.379597,17.8380147 11.5865661,17.840019 15.5469037,17.840019 C17.8390626,17.840019 19.7146111,17.8348078 19.7146111,17.8282603 L19.7146111,17.8282603 Z M4.00843874e-05,28.5470448 L4.00843874e-05,26.6533724 L1.28233966,26.6533724 L2.5651737,26.6533724 L2.66992757,26.3606095 C3.13263502,25.0678293 10.5803143,4.0122819 10.5803143,3.99691552 C10.5803143,3.98635948 9.85999789,3.9748681 8.97934388,3.97152759 L7.37877426,3.96551466 L7.37877426,2.08360086 L7.37877426,0.201419828 L13.806974,0.195807759 L20.2350401,0.189928448 L24.9274522,13.4159716 L29.6198643,26.641881 L30.8296111,26.6480276 L32.0396252,26.6539069 L32.0336125,28.5415664 L32.0277335,30.4290922 L26.2558488,30.4290922 L20.4834297,30.4290922 L20.4775506,28.5411655 L20.4719388,26.6533724 L21.6538938,26.6533724 C22.3245056,26.6533724 22.8359824,26.6445534 22.8359824,26.6331957 C22.8359824,26.6171612 21.6412004,23.2313466 21.4318263,22.6541052 L21.3838586,22.5223552 L15.5523819,22.5275664 L9.72077145,22.5334457 L8.99444233,24.5874629 L8.26824684,26.641881 L9.5275647,26.6480276 L10.7870162,26.6539069 L10.7870162,28.5470448 L10.7870162,30.4401828 L5.39339451,30.4401828 L4.00843874e-05,30.4401828 L4.00843874e-05,28.5470448 Z M81.6666364,30.9669155 C78.5484719,30.8572129 75.6745549,30.2356095 72.9946463,29.0924845 C72.6011512,28.9243897 71.3616083,28.3188207 71.2813059,28.2554845 C71.2469669,28.2286267 71.2663411,28.1910793 71.4725084,27.8810793 C72.2016435,26.7857905 73.0949909,25.2670578 73.6768826,24.1344888 C73.8277335,23.8410578 73.9552018,23.601075 73.9601456,23.601075 C73.9652229,23.601075 74.1013762,23.6537216 74.2623819,23.7177259 C76.3253917,24.5420319 78.5972412,25.151075 80.6260457,25.4237948 C81.5075014,25.5421828 81.8161512,25.5616914 82.8177264,25.5622259 C83.593493,25.5622259 83.8171639,25.5556784 84.0914747,25.5213379 C85.1325999,25.3907905 85.948718,25.1629672 86.6715731,24.8011224 C87.6152932,24.3279716 88.1970513,23.7228034 88.3984086,23.004325 C88.4605394,22.7825147 88.4555956,22.0910276 88.3903917,21.7871741 C88.2198994,20.9985448 87.7376842,20.4239759 86.7422553,19.8245534 C86.4305323,19.6366828 85.8420935,19.3423164 85.4109191,19.1583207 C84.719597,18.8631526 84.1462567,18.6627216 82.1978882,18.0343034 C77.6406941,16.5643422 75.3461301,15.2110319 74.0253495,13.2142043 C73.2622764,12.060256 72.8686477,10.5837474 72.8686477,8.87273448 C72.8685141,6.98734655 73.4283594,5.33058362 74.5356238,3.94279914 C74.7913622,3.62210948 75.4434015,2.96750172 75.7720935,2.70132931 C77.0868615,1.63677328 78.7666646,0.864712931 80.7290626,0.423230172 C83.3440345,-0.165101724 86.2114044,-0.140916379 90.0126069,0.501531897 C91.331116,0.724411207 93.2649205,1.13288966 93.2883031,1.19341983 C93.2988586,1.22121293 92.9756449,9.46641121 92.9636195,9.47963966 C92.9597447,9.48364828 88.2883101,9.39973448 88.2249768,9.39438966 C88.2198994,9.39438966 88.2231062,8.46545862 88.2323256,7.33101897 L88.2492947,5.26804914 L87.989147,5.21927759 C86.6290837,4.96379483 84.7011582,4.92050172 83.3111653,5.11385086 C81.3347377,5.38910948 79.9138797,6.14379914 79.3807574,7.20194138 C79.0336266,7.89022155 79.023071,8.63729483 79.3509613,9.28281638 C79.9774803,10.516269 81.934801,11.6197086 85.5946392,12.8018509 C88.3817068,13.7020534 90.2307996,14.4985664 91.5681484,15.3752517 C93.1613692,16.4194974 94.0952018,17.5969629 94.5677968,19.1585879 C94.9400471,20.3884328 94.9977686,22.0544155 94.7169107,23.4645147 C94.0396181,26.8693034 91.3618474,29.3590578 87.2240696,30.4301612 C85.5200823,30.8715103 83.7665239,31.0412086 81.6662356,30.9669155 L81.6666364,30.9669155 Z M66.298282,19.9502905 C66.3276772,19.8437948 66.3871357,19.5808293 66.4305605,19.3662345 C66.7536406,17.7631871 66.6090696,16.0449586 66.0245056,14.5464026 C65.1536055,12.3129328 63.4294423,10.6196914 61.2591399,9.86647155 C61.1284648,9.8209069 61.0084789,9.78389397 60.9927124,9.78389397 C60.9337883,9.78389397 60.7328319,10.7110879 60.6544001,11.3447172 C60.614583,11.6656741 60.6141821,12.8809543 60.6541329,13.2037819 C60.863507,14.9043724 61.4483383,16.3291698 62.4557925,17.5950922 C62.6734508,17.8682129 63.2072412,18.4203336 63.4703284,18.6432129 C64.2209754,19.2807172 64.9920654,19.7246052 65.9260316,20.0571871 C66.077417,20.1113034 66.2111653,20.1527259 66.2231906,20.1496526 C66.2350823,20.1460448 66.2688868,20.0566526 66.298282,19.9502905 L66.298282,19.9502905 Z M57.9390837,30.9659802 C55.0530077,30.7481784 52.3200541,29.6018466 50.1473467,27.6966828 C50.0149346,27.5800319 49.8855956,27.4625793 49.8607433,27.4341181 C49.8350893,27.4059241 49.7875225,27.3635664 49.7543861,27.3399155 L49.6941259,27.296756 L49.4270302,27.5924586 C48.6209332,28.4845103 47.5162075,29.2951871 46.3259684,29.868019 C44.3976421,30.7962819 42.2690274,31.1411569 40.0375295,30.8867431 C37.0016716,30.5409328 34.7151245,29.0783207 33.5777968,26.7569284 C33.0762075,25.7331267 32.7855956,24.5396267 32.7052932,23.1762948 C32.6909965,22.9327043 32.6820443,20.3836224 32.6820443,16.3998552 L32.6819107,10.0133207 L30.4211512,10.0133207 L28.1603917,10.0133207 L28.1662707,7.64369138 L28.1721498,5.27379483 L30.426763,5.26804914 L32.6815098,5.26257069 L32.6873889,2.72057069 L32.6934015,0.178837931 L35.7801667,0.178837931 L38.867199,0.178837931 L38.8726772,2.72070431 L38.8786899,5.26257069 L42.3041681,5.26818276 L45.7295127,5.27406207 L45.7353917,7.64369138 L45.7410035,10.0134543 L42.3096463,10.0134543 L38.8784226,10.0134543 L38.8784226,16.1243293 C38.8784226,22.7809112 38.8734789,22.4962991 39.0069599,23.0918466 C39.2783312,24.3017819 39.9953073,25.2712 40.9867278,25.7685362 C41.8394564,26.1958552 42.8653495,26.2613293 44.0497096,25.9634888 C44.9478671,25.7378034 45.8899838,25.2472819 46.6473115,24.6115147 C46.9023819,24.3977216 47.2098291,24.1056267 47.2098291,24.0777 C47.2098291,24.0647388 47.1283242,23.8929026 47.0289149,23.6956784 C46.2512778,22.1519586 45.7949838,20.5510491 45.6347799,18.8040922 C45.5877475,18.2932603 45.5809332,17.1323638 45.6222201,16.6696353 C45.7944494,14.7324026 46.271988,13.0916741 47.1487672,11.4251569 C48.592206,8.68152328 51.0634086,6.4509931 53.9314466,5.30412672 C54.2585352,5.17331207 54.7875155,4.98330345 54.7971357,4.99305776 C54.8007433,4.99679914 54.7570513,5.07683793 54.7002651,5.17130776 C53.8403214,6.59329914 53.1025014,9.52213103 52.969154,12.0428853 L52.9439008,12.5233853 L52.7882398,12.7430578 C51.9936336,13.8658724 51.4865661,15.1941957 51.3021779,16.634894 C51.2439219,17.0902733 51.2439219,18.2446224 51.3021779,18.7004026 C51.4983242,20.2406483 52.0476139,21.6137345 52.9425647,22.8034931 C54.0786899,24.3127388 55.7049135,25.3576526 57.468493,25.7106784 C58.0475788,25.8265276 58.1874733,25.8389543 58.937185,25.8377517 C59.5432609,25.8377517 59.6807504,25.8298681 59.9585352,25.7859069 C60.968929,25.626631 61.7961371,25.3279888 62.6782609,24.8028595 C62.8359262,24.7087905 62.9903847,24.6129845 63.021116,24.5893336 L63.0771006,24.5467086 L62.9523045,24.4940621 C62.6877475,24.3830233 61.7805042,23.9152172 61.4849487,23.7379026 C59.7049346,22.6698724 58.2513411,21.2756741 57.1184226,19.5499629 C54.5633101,15.6570578 54.2446392,10.6520276 56.2852018,6.46542414 C56.4145408,6.19925172 56.6062778,5.83273017 56.7103636,5.65060517 C56.9166646,5.29036379 57.4374944,4.49345 57.5060387,4.43291983 C57.6129304,4.3391181 59.2171076,4.30330776 60.0391048,4.37679914 C62.0647025,4.55745431 63.9077827,5.14137672 65.6322131,6.14860948 C68.6547096,7.91427328 70.8801948,10.8102345 71.7874381,14.1579672 C72.1340345,15.4373853 72.2656449,16.5271957 72.2422623,17.9128422 C72.2222201,19.0754759 72.1135914,19.8928336 71.8332679,20.9846483 C70.861756,24.7667819 68.2288797,27.9624543 64.6648432,29.6844241 C63.1639501,30.4097172 61.5691259,30.8347647 59.8461653,30.9683853 C59.501974,30.9949759 58.3066575,30.9937733 57.9390837,30.9655793 L57.9390837,30.9659802 Z" id="Fill-1" fill="#C8B08A" mask="url(#mask-2)"></path>
    </g>
</svg>