<?xml version="1.0" encoding="UTF-8" standalone="no"?>
<svg width="107px" height="31px" viewBox="0 0 107 31" version="1.1" xmlns="http://www.w3.org/2000/svg" xmlns:xlink="http://www.w3.org/1999/xlink">
    <!-- Generator: Sketch 47.1 (45422) - http://www.bohemiancoding.com/sketch -->
    <title>Accor</title>
    <desc>Created with Sketch.</desc>
    <defs>
        <polygon id="path-1" points="44.2575776 30.8043793 0.400327586 30.8043793 0.400327586 0.224482759 88.1148276 0.224482759 88.1148276 30.8043793"></polygon>
    </defs>
    <g id="Page-1" stroke="none" stroke-width="1" fill="none" fill-rule="evenodd">
        <g id="Artboard" transform="translate(-1556.000000, -804.000000)">
            <g id="Accor" transform="translate(1556.000000, 804.000000)">
                <path d="M100.725414,25.2788966 C103.248172,24.909569 104.86231,23.3237586 104.86231,21.3670172 C104.86231,19.298569 103.275966,17.5994483 100.100069,17.5994483 L89.2757241,17.5994483 L89.2757241,30.5488966 L92.1672759,30.5488966 L92.1672759,19.9704138 L99.3929483,19.9704138 C100.754276,19.9704138 101.688552,20.5706379 101.688552,21.8459138 C101.688552,23.0078793 100.754276,23.8336552 99.0241552,23.8336552 L94.7167586,23.8336552 L94.7167586,26.0154138 L96.2485862,26.0154138 C98.0604828,26.0154138 99.1096724,26.4964483 100.045017,27.6022931 L102.53731,30.5488966 L106.279224,30.5488966 L103.048276,26.6952759 C102.425603,25.9587586 101.688552,25.4488621 100.725414,25.2788966" id="Fill-72" fill="#DCCCB4"></path>
                <path d="M50.5070172,20.4616034 C48.6935172,18.7598103 45.6047414,17.3156379 42.0905172,17.3156379 C36.5645,17.3156379 32.767,20.0928103 32.767,24.0314138 C32.767,27.9694828 36.5356379,30.8043793 42.0333276,30.8043793 C45.6047414,30.8043793 48.6641207,29.5862931 50.5070172,27.6867414 L48.3819138,25.8737759 C47.0205862,27.2340345 44.8393621,28.3388103 42.0905172,28.3388103 C38.5757586,28.3388103 36.0252069,26.7241379 36.0252069,24.0314138 C36.0252069,21.4242069 38.5757586,19.7812069 42.0333276,19.7812069 C44.8393621,19.7812069 46.963931,20.8571207 48.3819138,22.274569 L50.5070172,20.4616034" id="Fill-73" fill="#DCCCB4"></path>
                <path d="M68.5597069,20.4616034 C66.7456724,18.7598103 63.6563621,17.3156379 60.1432069,17.3156379 C54.6166552,17.3156379 50.8202241,20.0928103 50.8202241,24.0314138 C50.8202241,27.9694828 54.5888621,30.8043793 60.0849483,30.8043793 C63.6563621,30.8043793 66.7168103,29.5862931 68.5597069,27.6867414 L66.4335345,25.8737759 C65.0743448,27.2340345 62.8920517,28.3388103 60.1432069,28.3388103 C56.6300517,28.3388103 54.078431,26.7241379 54.078431,24.0314138 C54.078431,21.4242069 56.6300517,19.7812069 60.0849483,19.7812069 C62.8920517,19.7812069 65.0176897,20.8571207 66.4335345,22.274569 L68.5597069,20.4616034" id="Fill-74" fill="#DCCCB4"></path>
                <path d="M24.4627414,28.1410517 L25.992431,25.8165862 L21.3739655,25.8165862 C20.3808966,25.8165862 19.7315,25.9298966 19.0783621,26.5531034 L23.6129138,20.0634138 L31.0946034,30.5488966 L34.5521724,30.5488966 L25.2575172,17.5994483 L22.2243276,17.5994483 L12.8719483,30.5488966 L16.2156724,30.5488966 L17.2076724,29.1047241 C17.7181034,28.3682069 18.1440862,28.1410517 18.9933793,28.1410517 L24.4627414,28.1410517" id="Fill-75" fill="#DCCCB4"></path>
                <mask id="mask-2" fill="white">
                    <use xlink:href="#path-1"></use>
                </mask>
                <g id="Clip-77"></g>
                <path d="M78.3086724,28.3388103 C74.9644138,28.3388103 72.1578448,26.7807931 72.1578448,24.0314138 C72.1578448,21.3958793 74.9360862,19.7812069 78.337,19.7812069 C82.1051034,19.7812069 84.8534138,21.3958793 84.8534138,23.9747586 C84.8534138,26.8369138 82.0484483,28.3388103 78.3086724,28.3388103 Z M78.337,17.3156379 C72.9804138,17.3156379 68.8996379,19.978431 68.8996379,24.0314138 C68.8996379,28.1132586 72.9804138,30.8043793 78.337,30.8043793 C84.0607759,30.8043793 88.1148276,28.1132586 88.1148276,23.9747586 C88.1148276,20.0067586 84.0607759,17.3156379 78.337,17.3156379 L78.337,17.3156379 Z" id="Fill-76" fill="#DCCCB4" mask="url(#mask-2)"></path>
                <path d="M9.15622414,10.4122586 C6.25825862,11.3144655 3.93539655,12.863931 0.550517241,13.9280862 C0.453775862,13.9590862 0.391241379,13.9900862 0.400862069,14.0515517 C0.414224138,14.1253103 0.497068966,14.1253103 0.578310345,14.1231724 C4.94717241,14.0376552 9.84463793,15.0077414 13.5662414,14.3658276 C19.8480172,13.2797586 18.8725862,10.4053103 28.0972241,8.70244828 L30.1571207,8.34648276 C30.256,8.32831034 30.3532759,8.31387931 30.3388448,8.22943103 C30.3388448,8.22943103 30.3292241,8.17437931 30.1891897,8.14337931 L28.0603448,7.64737931 C27.8374655,6.96217241 27.0480345,6.59818966 25.9165345,6.80503448 C23.6043621,7.23262069 21.8389655,9.42934483 18.9992586,9.1417931 C18.4043793,5.70667241 14.8885517,3.49658621 10.5052586,2.92896552 C4.94931034,2.22184483 3.10427586,1.5345 1.73439655,0.763241379 C1.57565517,0.676655172 1.47303448,0.57937931 1.33460345,0.603431034 C1.2212931,0.621603448 1.16089655,0.776068966 1.20098276,0.999482759 C1.69163793,3.84453448 8.38122414,5.93756897 9.15622414,10.4122586" id="Fill-78" fill="#DCCCB4" mask="url(#mask-2)"></path>
                <path d="M25.0089828,11.9729483 C24.9544655,11.9868448 24.9090345,12.0162414 24.9165172,12.0547241 C24.9261379,12.1049655 24.9619483,12.1215345 25.0202069,12.1242069 C26.953431,12.1926207 29.7370172,11.9873793 32.3688103,11.5325345 C41.352931,9.98039655 38.965931,7.13106897 47.6683793,5.62810345 L49.4872241,5.31489655 C49.5861034,5.29672414 49.6871207,5.28015517 49.678569,5.22403448 C49.6678793,5.16844828 49.5620517,5.15722414 49.4915,5.14065517 L48.1275,4.7895 C47.9602069,4.20905172 47.2878276,3.97548276 46.4139483,4.1262069 C44.6538966,4.4297931 43.5929483,5.70025862 41.0076552,5.37048276 C40.0471897,3.46558621 37.1967931,2.20313793 34.1149655,1.84289655 C30.5344655,1.42706897 28.4467759,1.06896552 26.2088966,0.275258621 C26.1452931,0.258155172 26.0758103,0.211655172 25.9897586,0.227689655 C25.8743103,0.248 25.8336897,0.368793103 25.8534655,0.481034483 C26.3232759,3.20422414 31.7637759,4.28281034 32.2993276,7.38227586 C33.9059828,7.16634483 35.0428276,5.93382759 36.5666379,5.67193103 C37.4576207,5.51746552 38.0867069,5.7195 38.3266897,6.36889655 L40.0001552,6.75105172 C40.0696379,6.76868966 40.1733276,6.77937931 40.1813448,6.8355 C40.1898966,6.89108621 40.1626379,6.92475862 40.0338276,6.94774138 L37.9632414,7.30584483 C35.5019483,7.72915517 33.3533276,8.56562069 30.7546724,9.90610345 C29.0753276,10.7708966 26.9149483,11.533069 25.0089828,11.9729483" id="Fill-79" fill="#DCCCB4" mask="url(#mask-2)"></path>
            </g>
        </g>
    </g>
</svg>