<?xml version="1.0" encoding="UTF-8" standalone="no"?>
<svg
   xmlns:dc="http://purl.org/dc/elements/1.1/"
   xmlns:cc="http://creativecommons.org/ns#"
   xmlns:rdf="http://www.w3.org/1999/02/22-rdf-syntax-ns#"
   xmlns:svg="http://www.w3.org/2000/svg"
   xmlns="http://www.w3.org/2000/svg"
   xmlns:sodipodi="http://sodipodi.sourceforge.net/DTD/sodipodi-0.dtd"
   xmlns:inkscape="http://www.inkscape.org/namespaces/inkscape"
   width="154px"
   height="31px"
   viewBox="0 0 154 31"
   version="1.1"
   id="svg17"
   sodipodi:docname="v5.svg"
   inkscape:version="0.92.3 (2405546, 2018-03-11)">
  <metadata
     id="metadata21">
    <rdf:RDF>
      <cc:Work
         rdf:about="">
        <dc:format>image/svg+xml</dc:format>
        <dc:type
           rdf:resource="http://purl.org/dc/dcmitype/StillImage" />
      </cc:Work>
    </rdf:RDF>
  </metadata>
  <sodipodi:namedview
     pagecolor="#ffffff"
     bordercolor="#666666"
     borderopacity="1"
     objecttolerance="10"
     gridtolerance="10"
     guidetolerance="10"
     inkscape:pageopacity="0"
     inkscape:pageshadow="2"
     inkscape:window-width="716"
     inkscape:window-height="480"
     id="namedview19"
     showgrid="false"
     inkscape:zoom="1.3040151"
     inkscape:cx="77"
     inkscape:cy="15.5"
     inkscape:window-x="0"
     inkscape:window-y="0"
     inkscape:window-maximized="0"
     inkscape:current-layer="svg17" />
  <!-- Generator: Sketch 48.1 (47250) - http://www.bohemiancoding.com/sketch -->
  <title
     id="title2">Philips</title>
  <desc
     id="desc4">Created with Sketch.</desc>
  <defs
     id="defs6" />
  <g
     id="Students-say-Copy"
     stroke="none"
     stroke-width="1"
     fill="none"
     fill-rule="evenodd"
     transform="translate(-1215.000000, -692.000000)"
     inkscape:export-xdpi="96"
     inkscape:export-ydpi="96">
    <g
       id="Philips"
       transform="translate(1215.000000, 692.000000)"
       fill="#DCCCB4">
      <path
         d="M0,1.19230769 L13.5783,1.19230769 C13.5783,1.19230769 23.8461538,1.35000951 23.8461538,12.7844156 C23.8461538,23.6658413 13.3543003,24.3754995 13.3543003,24.3754995 L7.94837386,24.3754995 L7.94837386,31 L0,31 L0,1.19230769 Z M7.94837386,17.5943211 L11.1277234,17.5943211 C11.1277234,17.5943211 15.3403616,17.2000666 15.3403616,12.6267138 C15.3403616,8.05336096 10.8097885,7.73795732 10.8097885,7.73795732 L7.94837386,7.73795732 L7.94837386,17.5943211 Z"
         id="Fill-2" />
      <path
         d="M107.307692,1.19230769 L121.137863,1.19230769 C121.137863,1.19230769 131.153846,1.82311498 131.153846,12.7844156 C131.153846,22.7196303 121.058379,24.3754995 121.058379,24.3754995 L115.256066,24.3754995 L115.256066,31 L107.307692,31 L107.307692,1.19230769 Z M115.256066,17.5943211 L118.435416,17.5943211 C118.435416,17.5943211 122.648054,17.2000666 122.648054,12.6267138 C122.648054,8.05336096 118.117481,7.73795732 118.117481,7.73795732 L115.256066,7.73795732 L115.256066,17.5943211 Z"
         id="Fill-3" />
      <polyline
         id="Fill-4"
         points="27.4230769 1.19230769 35.3182833 1.19230769 35.3182833 12.161811 43.6930227 12.161811 43.6930227 1.19230769 51.2692308 1.19230769 51.2692308 31 43.7727722 31 43.7727722 18.9177533 35.3980328 18.9177533 35.3980328 31 27.4230769 31 27.4230769 1.19230769" />
      <polygon
         id="Fill-5"
         points="58.4230769 31 65.5769231 31 65.5769231 1.19230769 58.4230769 1.19230769" />
      <polygon
         id="Fill-6"
         points="91.8076923 31 98.9615385 31 98.9615385 1.19230769 91.8076923 1.19230769" />
      <polyline
         id="Fill-7"
         points="72.7307692 1.19230769 80.1676379 1.19230769 80.1676379 23.9250988 88.2307692 23.9250988 88.2307692 31 72.7307692 31 72.7307692 1.19230769" />
      <path
         d="M150.496728,0.399631237 C150.496728,0.399631237 147.579926,0 144.899621,0 C140.800331,0 133.625551,1.11896746 133.546718,9.75204018 C133.546718,9.75204018 133.022533,16.5115171 140.327336,18.3840749 C147.185763,20.1424523 145.648018,21.5416807 145.845611,21.7409773 C145.845611,21.7409773 146.003276,23.898986 140.800331,23.898986 C135.596363,23.898986 134.413876,22.939871 134.413876,22.939871 L134.413876,29.9744188 C134.413876,29.9744188 135.613768,30.5069144 140.721499,30.9335337 C147.422261,31.4930175 153.807692,28.5419743 153.807692,21.2614198 C153.807692,18.3840749 152.388707,13.7483525 145.845611,12.1498276 C141.661346,11.1273944 141.081876,9.91604469 141.114637,9.35240894 C141.114637,9.35240894 140.931378,6.92763344 145.687946,7.03454777 C150.101541,7.13315807 150.57556,7.75388399 150.57556,7.75388399 L150.496728,0.399631237"
         id="Fill-8" />
    </g>
  </g>
</svg>
